<svg xmlns="http://www.w3.org/2000/svg" xmlns:xlink="http://www.w3.org/1999/xlink" contentStyleType="text/css" height="732px" preserveAspectRatio="none" style="width:1311px;height:732px;background:#FFFFFF;" version="1.1" viewBox="0 0 1311 732" width="1311px" zoomAndPan="magnify"><title>Histogram Equalization &#8212; Three-Stage Algorithm</title><defs/><g><text fill="#000000" font-family="sans-serif" font-size="14" font-weight="bold" lengthAdjust="spacing" textLength="359.2559" x="474.4128" y="33.5352">Histogram Equalization &#8212; Three-Stage Algorithm</text><rect fill="none" height="15.3105" style="stroke:none;stroke-width:1;" width="1278.0815" x="15" y="48.7305"/><ellipse cx="281.4678" cy="79.041" fill="#222222" rx="10" ry="10" style="stroke:#222222;stroke-width:1;"/><rect fill="#F5F5F5" height="50.6211" rx="12.5" ry="12.5" style="stroke:#666666;stroke-width:0.5;" width="141.9893" x="210.4731" y="109.041"/><text fill="#000000" font-family="sans-serif" font-size="13" lengthAdjust="spacing" textLength="75.4609" x="220.4731" y="131.6094">Input image</text><text fill="#000000" font-family="sans-serif" font-size="13" lengthAdjust="spacing" textLength="121.9893" x="220.4731" y="146.9199">(packed int[], W&#215;H)</text><rect fill="#555555" height="6" rx="2.5" ry="2.5" style="stroke:#555555;stroke-width:1;" width="520.9355" x="21" y="179.6621"/><rect fill="#F5F5F5" height="65.9316" rx="12.5" ry="12.5" style="stroke:#666666;stroke-width:0.5;" width="142.4209" x="33" y="205.6621"/><text fill="#000000" font-family="sans-serif" font-size="13" lengthAdjust="spacing" textLength="122.4209" x="43" y="228.2305">Thread 1 computes</text><text fill="#000000" font-family="sans-serif" font-size="13" lengthAdjust="spacing" textLength="108.3926" x="43" y="243.541">partial histogram</text><text fill="#000000" font-family="sans-serif" font-size="13" lengthAdjust="spacing" textLength="118.9932" x="43" y="258.8516">for columns [0, C&#8321;)</text><rect fill="#F5F5F5" height="65.9316" rx="12.5" ry="12.5" style="stroke:#666666;stroke-width:0.5;" width="145.252" x="203.4209" y="205.6621"/><text fill="#000000" font-family="sans-serif" font-size="13" lengthAdjust="spacing" textLength="122.4209" x="213.4209" y="228.2305">Thread 2 computes</text><text fill="#000000" font-family="sans-serif" font-size="13" lengthAdjust="spacing" textLength="108.3926" x="213.4209" y="243.541">partial histogram</text><text fill="#000000" font-family="sans-serif" font-size="13" lengthAdjust="spacing" textLength="125.252" x="213.4209" y="258.8516">for columns [C&#8321;, C&#8322;)</text><rect fill="#F5F5F5" height="65.9316" rx="12.5" ry="12.5" style="stroke:#666666;stroke-width:0.5;" width="153.2627" x="376.6729" y="205.6621"/><text fill="#000000" font-family="sans-serif" font-size="13" lengthAdjust="spacing" textLength="123.8047" x="386.6729" y="228.2305">Thread N computes</text><text fill="#000000" font-family="sans-serif" font-size="13" lengthAdjust="spacing" textLength="108.3926" x="386.6729" y="243.541">partial histogram</text><text fill="#000000" font-family="sans-serif" font-size="13" lengthAdjust="spacing" textLength="133.2627" x="386.6729" y="258.8516">for columns [C&#8345;&#8331;&#8321;, W)</text><rect fill="#555555" height="6" rx="2.5" ry="2.5" style="stroke:#555555;stroke-width:1;" width="520.9355" x="21" y="291.5938"/><rect fill="#F5F5F5" height="65.9316" rx="12.5" ry="12.5" style="stroke:#666666;stroke-width:0.5;" width="200.54" x="181.1978" y="317.5938"/><text fill="#000000" font-family="sans-serif" font-size="13" lengthAdjust="spacing" textLength="125.9565" x="191.1978" y="340.1621">Main thread merges</text><text fill="#000000" font-family="sans-serif" font-size="13" lengthAdjust="spacing" textLength="128.7368" x="191.1978" y="355.4727">N partial histograms</text><text fill="#000000" font-family="sans-serif" font-size="13" lengthAdjust="spacing" textLength="180.54" x="191.1978" y="370.7832">&#8594; 256-bin global histogram</text><line style="stroke:#000000;stroke-width:1.5;" x1="15" x2="15" y1="48.7305" y2="720.0098"/><rect fill="#F5F5F5" height="65.9316" rx="12.5" ry="12.5" style="stroke:#666666;stroke-width:0.5;" width="157.6743" x="578.3171" y="403.5254"/><text fill="#000000" font-family="sans-serif" font-size="13" lengthAdjust="spacing" textLength="137.6743" x="588.3171" y="426.0938">Sequential prefix sum</text><text fill="#000000" font-family="sans-serif" font-size="13" lengthAdjust="spacing" textLength="86.7979" x="588.3171" y="441.4043">over 256 bins</text><text fill="#000000" font-family="sans-serif" font-size="13" lengthAdjust="spacing" textLength="110.2842" x="588.3171" y="456.7148">(&#8776; 256 additions)</text><line style="stroke:#000000;stroke-width:1.5;" x1="545.9355" x2="545.9355" y1="48.7305" y2="720.0098"/><rect fill="#555555" height="6" rx="2.5" ry="2.5" style="stroke:#555555;stroke-width:1;" width="515.6519" x="772.373" y="489.457"/><rect fill="#F5F5F5" height="65.9316" rx="12.5" ry="12.5" style="stroke:#666666;stroke-width:0.5;" width="157.2173" x="784.373" y="515.457"/><text fill="#000000" font-family="sans-serif" font-size="13" lengthAdjust="spacing" textLength="105.5869" x="794.373" y="538.0254">Thread 1 applies</text><text fill="#000000" font-family="sans-serif" font-size="13" lengthAdjust="spacing" textLength="137.2173" x="794.373" y="553.3359">equalization mapping</text><text fill="#000000" font-family="sans-serif" font-size="13" lengthAdjust="spacing" textLength="113.7563" x="794.373" y="568.6465">to columns [0, C&#8321;)</text><rect fill="#F5F5F5" height="65.9316" rx="12.5" ry="12.5" style="stroke:#666666;stroke-width:0.5;" width="157.2173" x="951.5903" y="515.457"/><text fill="#000000" font-family="sans-serif" font-size="13" lengthAdjust="spacing" textLength="105.5869" x="961.5903" y="538.0254">Thread 2 applies</text><text fill="#000000" font-family="sans-serif" font-size="13" lengthAdjust="spacing" textLength="137.2173" x="961.5903" y="553.3359">equalization mapping</text><text fill="#000000" font-family="sans-serif" font-size="13" lengthAdjust="spacing" textLength="120.0151" x="961.5903" y="568.6465">to columns [C&#8321;, C&#8322;)</text><rect fill="#F5F5F5" height="65.9316" rx="12.5" ry="12.5" style="stroke:#666666;stroke-width:0.5;" width="157.2173" x="1118.8076" y="515.457"/><text fill="#000000" font-family="sans-serif" font-size="13" lengthAdjust="spacing" textLength="106.9707" x="1128.8076" y="538.0254">Thread N applies</text><text fill="#000000" font-family="sans-serif" font-size="13" lengthAdjust="spacing" textLength="137.2173" x="1128.8076" y="553.3359">equalization mapping</text><text fill="#000000" font-family="sans-serif" font-size="13" lengthAdjust="spacing" textLength="128.0259" x="1128.8076" y="568.6465">to columns [C&#8345;&#8331;&#8321;, W)</text><rect fill="#555555" height="6" rx="2.5" ry="2.5" style="stroke:#555555;stroke-width:1;" width="515.6519" x="772.373" y="601.3887"/><rect fill="#F5F5F5" height="50.6211" rx="12.5" ry="12.5" style="stroke:#666666;stroke-width:0.5;" width="141.9893" x="959.2043" y="627.3887"/><text fill="#000000" font-family="sans-serif" font-size="13" lengthAdjust="spacing" textLength="86.6772" x="969.2043" y="649.957">Output image</text><text fill="#000000" font-family="sans-serif" font-size="13" lengthAdjust="spacing" textLength="121.9893" x="969.2043" y="665.2676">(packed int[], W&#215;H)</text><ellipse cx="1030.199" cy="709.0098" fill="none" rx="11" ry="11" style="stroke:#222222;stroke-width:1;"/><ellipse cx="1030.199" cy="709.0098" fill="#222222" rx="6" ry="6" style="stroke:#222222;stroke-width:1;"/><line style="stroke:#000000;stroke-width:1.5;" x1="766.373" x2="766.373" y1="48.7305" y2="720.0098"/><line style="stroke:#000000;stroke-width:1.5;" x1="1292.0249" x2="1292.0249" y1="48.7305" y2="720.0098"/><line style="stroke:#333333;stroke-width:1;" x1="281.4678" x2="281.4678" y1="89.041" y2="109.041"/><polygon fill="#333333" points="277.4678,99.041,281.4678,109.041,285.4678,99.041,281.4678,103.041" style="stroke:#333333;stroke-width:1;"/><line style="stroke:#333333;stroke-width:1;" x1="104.2104" x2="104.2104" y1="185.6621" y2="205.6621"/><polygon fill="#333333" points="100.2104,195.6621,104.2104,205.6621,108.2104,195.6621,104.2104,199.6621" style="stroke:#333333;stroke-width:1;"/><line style="stroke:#333333;stroke-width:1;" x1="276.0469" x2="276.0469" y1="185.6621" y2="205.6621"/><polygon fill="#333333" points="272.0469,195.6621,276.0469,205.6621,280.0469,195.6621,276.0469,199.6621" style="stroke:#333333;stroke-width:1;"/><line style="stroke:#333333;stroke-width:1;" x1="453.3042" x2="453.3042" y1="185.6621" y2="205.6621"/><polygon fill="#333333" points="449.3042,195.6621,453.3042,205.6621,457.3042,195.6621,453.3042,199.6621" style="stroke:#333333;stroke-width:1;"/><line style="stroke:#333333;stroke-width:1;" x1="104.2104" x2="104.2104" y1="271.5938" y2="291.5938"/><polygon fill="#333333" points="100.2104,281.5938,104.2104,291.5938,108.2104,281.5938,104.2104,285.5938" style="stroke:#333333;stroke-width:1;"/><line style="stroke:#333333;stroke-width:1;" x1="276.0469" x2="276.0469" y1="271.5938" y2="291.5938"/><polygon fill="#333333" points="272.0469,281.5938,276.0469,291.5938,280.0469,281.5938,276.0469,285.5938" style="stroke:#333333;stroke-width:1;"/><line style="stroke:#333333;stroke-width:1;" x1="453.3042" x2="453.3042" y1="271.5938" y2="291.5938"/><polygon fill="#333333" points="449.3042,281.5938,453.3042,291.5938,457.3042,281.5938,453.3042,285.5938" style="stroke:#333333;stroke-width:1;"/><line style="stroke:#333333;stroke-width:1;" x1="281.4678" x2="281.4678" y1="159.6621" y2="179.6621"/><polygon fill="#333333" points="277.4678,169.6621,281.4678,179.6621,285.4678,169.6621,281.4678,173.6621" style="stroke:#333333;stroke-width:1;"/><line style="stroke:#333333;stroke-width:1;" x1="281.4678" x2="281.4678" y1="297.5938" y2="317.5938"/><polygon fill="#333333" points="277.4678,307.5938,281.4678,317.5938,285.4678,307.5938,281.4678,311.5938" style="stroke:#333333;stroke-width:1;"/><line style="stroke:#333333;stroke-width:1;" x1="862.9817" x2="862.9817" y1="495.457" y2="515.457"/><polygon fill="#333333" points="858.9817,505.457,862.9817,515.457,866.9817,505.457,862.9817,509.457" style="stroke:#333333;stroke-width:1;"/><line style="stroke:#333333;stroke-width:1;" x1="1030.199" x2="1030.199" y1="495.457" y2="515.457"/><polygon fill="#333333" points="1026.199,505.457,1030.199,515.457,1034.199,505.457,1030.199,509.457" style="stroke:#333333;stroke-width:1;"/><line style="stroke:#333333;stroke-width:1;" x1="1197.4163" x2="1197.4163" y1="495.457" y2="515.457"/><polygon fill="#333333" points="1193.4163,505.457,1197.4163,515.457,1201.4163,505.457,1197.4163,509.457" style="stroke:#333333;stroke-width:1;"/><line style="stroke:#333333;stroke-width:1;" x1="862.9817" x2="862.9817" y1="581.3887" y2="601.3887"/><polygon fill="#333333" points="858.9817,591.3887,862.9817,601.3887,866.9817,591.3887,862.9817,595.3887" style="stroke:#333333;stroke-width:1;"/><line style="stroke:#333333;stroke-width:1;" x1="1030.199" x2="1030.199" y1="581.3887" y2="601.3887"/><polygon fill="#333333" points="1026.199,591.3887,1030.199,601.3887,1034.199,591.3887,1030.199,595.3887" style="stroke:#333333;stroke-width:1;"/><line style="stroke:#333333;stroke-width:1;" x1="1197.4163" x2="1197.4163" y1="581.3887" y2="601.3887"/><polygon fill="#333333" points="1193.4163,591.3887,1197.4163,601.3887,1201.4163,591.3887,1197.4163,595.3887" style="stroke:#333333;stroke-width:1;"/><line style="stroke:#333333;stroke-width:1;" x1="1030.199" x2="1030.199" y1="607.3887" y2="627.3887"/><polygon fill="#333333" points="1026.199,617.3887,1030.199,627.3887,1034.199,617.3887,1030.199,621.3887" style="stroke:#333333;stroke-width:1;"/><line style="stroke:#333333;stroke-width:1;" x1="1030.199" x2="1030.199" y1="678.0098" y2="698.0098"/><polygon fill="#333333" points="1026.199,688.0098,1030.199,698.0098,1034.199,688.0098,1030.199,692.0098" style="stroke:#333333;stroke-width:1;"/><line style="stroke:#333333;stroke-width:1;" x1="281.4678" x2="281.4678" y1="383.5254" y2="388.5254"/><line style="stroke:#333333;stroke-width:1;" x1="281.4678" x2="657.1543" y1="388.5254" y2="388.5254"/><line style="stroke:#333333;stroke-width:1;" x1="657.1543" x2="657.1543" y1="388.5254" y2="403.5254"/><polygon fill="#333333" points="653.1543,393.5254,657.1543,403.5254,661.1543,393.5254,657.1543,397.5254" style="stroke:#333333;stroke-width:1;"/><line style="stroke:#333333;stroke-width:1;" x1="657.1543" x2="657.1543" y1="469.457" y2="474.457"/><line style="stroke:#333333;stroke-width:1;" x1="657.1543" x2="1030.199" y1="474.457" y2="474.457"/><line style="stroke:#333333;stroke-width:1;" x1="1030.199" x2="1030.199" y1="474.457" y2="489.457"/><polygon fill="#333333" points="1026.199,479.457,1030.199,489.457,1034.199,479.457,1030.199,483.457" style="stroke:#333333;stroke-width:1;"/><text fill="#000000" font-family="sans-serif" font-size="13" lengthAdjust="spacing" textLength="168.835" x="196.0503" y="61.2988">Stage 1 &#8212; Build Histogram</text><text fill="#000000" font-family="sans-serif" font-size="13" lengthAdjust="spacing" textLength="210.4375" x="550.9355" y="61.2988">Stage 2 &#8212; Cumulative Prefix Sum</text><text fill="#000000" font-family="sans-serif" font-size="13" lengthAdjust="spacing" textLength="145.2471" x="956.5754" y="61.2988">Stage 3 &#8212; Equalization</text><!--SRC=[bPBFJXin4CRl-nGZzG8II2KH7C898X0ScbRQIXn83oQUR4RndyKUfotAeSsXAkgjgbJrUVec-oIrdHHM0WHhdppp-JTZV-FdP6hXX0PjZPtCdDK8x08M_YuZSIg2ubDhU2HYkXJ6b-Xe-hYcf1k4lNuhUUIS_JYqoZfurS-hdPmmBOW_7ul9l78s6BbHdkwd_PZIEebkeph8goYOM26SaMTR9V79TH2ARWIJDT1y-GNlPmvnjsHH8HofoZhYcIwAvJgobpN7WPIyXomBpy9nCJWtTM0W7PLZirN7Jb426Rxyi0CNVt-VRHyMK-lc1S0WbH4oyYPMnqlenwbx9g5WzfyxDb4T1Ifeu-7ozGuCczNN3GH49SYqKBqEgCJ9jDLJj54tsfzczICpBo8GZOJypi6R20LU4pMwAj56y80Neystdz3RFzYzYXSgPQ_QwSExx-_bxny67LHqR87mpk6KFa4PeWc34gy3ceokrt4VOgzsWIwn8R9ZfQtczdi-2YafsUwtxmlqSu7sK2mVMYRgMb5w2hQ7HySmcMfis7Rmh0Fh9QPrmptXsjl0pyvn77bR_mC0]--></g></svg>