<svg xmlns="http://www.w3.org/2000/svg" xmlns:xlink="http://www.w3.org/1999/xlink" contentStyleType="text/css" height="459px" preserveAspectRatio="none" style="width:2300px;height:459px;background:#FFFFFF;" version="1.1" viewBox="0 0 2300 459" width="2300px" zoomAndPan="magnify"><title>Implementation Hierarchy</title><defs/><g><text fill="#000000" font-family="sans-serif" font-size="14" font-weight="bold" lengthAdjust="spacing" textLength="187.5508" x="1049.5081" y="23.5352">Implementation Hierarchy</text><!--class ImageProcessingService--><g id="elem_ImageProcessingService"><rect codeLine="12" fill="#FAFAFA" height="68.3984" id="ImageProcessingService" rx="2.5" ry="2.5" style="stroke:#666666;stroke-width:0.5;" width="243.8711" x="855.65" y="79.8183"/><ellipse cx="904.3834" cy="98.9511" fill="#B1B1B1" rx="10" ry="10" style="stroke:#181818;stroke-width:1;"/><path d="M901.8912,96.2265 L901.8912,94.703 L907.1002,94.703 L907.1002,96.2265 L905.36,96.2265 L905.36,101.9277 L907.1002,101.9277 L907.1002,103.4511 L901.8912,103.4511 L901.8912,101.9277 L903.6314,101.9277 L903.6314,96.2265 Z " fill="#000000"/><text fill="#000000" font-family="sans-serif" font-size="12" font-style="italic" lengthAdjust="spacing" textLength="63.4453" x="960.8629" y="96.4198">&#171;interface&#187;</text><text fill="#000000" font-family="sans-serif" font-size="12" font-style="italic" lengthAdjust="spacing" textLength="138.4043" x="923.3834" y="110.5527">ImageProcessingService</text><line style="stroke:#666666;stroke-width:0.5;" x1="856.65" x2="1098.5211" y1="118.0839" y2="118.0839"/><line style="stroke:#666666;stroke-width:0.5;" x1="856.65" x2="1098.5211" y1="126.0839" y2="126.0839"/><ellipse cx="866.65" cy="138.6503" fill="#A6A6A6" rx="3" ry="3" style="stroke:#545454;stroke-width:1;"/><text fill="#000000" font-family="sans-serif" font-size="12" lengthAdjust="spacing" textLength="218.8711" x="874.65" y="141.6855">process(ImageData input): ImageData</text></g><!--class SequentialImageProcessingService--><g id="elem_SequentialImageProcessingService"><rect codeLine="16" fill="#FAFAFA" height="60.1328" id="SequentialImageProcessingService" rx="2.5" ry="2.5" style="stroke:#666666;stroke-width:0.5;" width="228.7383" x="863.21" y="243.5483"/><ellipse cx="877.21" cy="258.5483" fill="#C2C2C2" rx="10" ry="10" style="stroke:#181818;stroke-width:1;"/><path d="M879.044,262.7963 Q878.6338,263.0073 878.1827,263.1127 Q877.7315,263.2182 877.2334,263.2182 Q875.4639,263.2182 874.5323,262.0522 Q873.6006,260.8862 873.6006,258.683 Q873.6006,256.4741 874.5323,255.308 Q875.4639,254.142 877.2334,254.142 Q877.7315,254.142 878.1885,254.2475 Q878.6455,254.353 879.044,254.5639 L879.044,256.4858 Q878.5987,256.0756 878.1797,255.8852 Q877.7608,255.6948 877.3155,255.6948 Q876.3663,255.6948 875.8829,256.4477 Q875.3995,257.2006 875.3995,258.683 Q875.3995,260.1596 875.8829,260.9125 Q876.3663,261.6655 877.3155,261.6655 Q877.7608,261.6655 878.1797,261.475 Q878.5987,261.2846 879.044,260.8745 Z " fill="#000000"/><text fill="#000000" font-family="sans-serif" font-size="12" lengthAdjust="spacing" textLength="198.7383" x="890.21" y="263.0834">SequentialImageProcessingService</text><line style="stroke:#666666;stroke-width:0.5;" x1="864.21" x2="1090.9483" y1="273.5483" y2="273.5483"/><line style="stroke:#666666;stroke-width:0.5;" x1="864.21" x2="1090.9483" y1="281.5483" y2="281.5483"/><rect fill="#808080" height="6" style="stroke:#595959;stroke-width:1;" width="6" x="871.21" y="291.1147"/><text fill="#000000" font-family="sans-serif" font-size="12" lengthAdjust="spacing" textLength="182.6191" x="882.21" y="297.1498">buildHistogram(img, w, h): int[]</text></g><g id="elem_GMN4"><path d="M1127.16,247.4183 L1127.16,269.6183 L1092.29,273.6183 L1127.16,277.6183 L1127.16,299.8167 A0,0 0 0 0 1127.16,299.8167 L1389.9998,299.8167 A0,0 0 0 0 1389.9998,299.8167 L1389.9998,257.4183 L1379.9998,247.4183 L1127.16,247.4183 A0,0 0 0 0 1127.16,247.4183 " fill="#FAFAFA" style="stroke:#181818;stroke-width:0.5;"/><path d="M1379.9998,247.4183 L1379.9998,257.4183 L1389.9998,257.4183 L1379.9998,247.4183 " fill="#FAFAFA" style="stroke:#181818;stroke-width:0.5;"/><text fill="#000000" font-family="sans-serif" font-size="12" lengthAdjust="spacing" textLength="146.6016" x="1133.16" y="264.0198">Baseline implementation.</text><text fill="#000000" font-family="sans-serif" font-size="12" lengthAdjust="spacing" textLength="241.8398" x="1133.16" y="278.1527">Single-threaded, column-major iteration.</text><text fill="#000000" font-family="sans-serif" font-size="12" lengthAdjust="spacing" textLength="194.8125" x="1133.16" y="292.2855">All others override stage 1 and 3.</text></g><!--class ManualThreadImageProcessingService--><g id="elem_ManualThreadImageProcessingService"><rect codeLine="25" fill="#FAFAFA" height="88.3984" id="ManualThreadImageProcessingService" rx="2.5" ry="2.5" style="stroke:#666666;stroke-width:0.5;" width="251.168" x="7" y="363.6783"/><ellipse cx="21" cy="378.6783" fill="#C2C2C2" rx="10" ry="10" style="stroke:#181818;stroke-width:1;"/><path d="M22.834,382.9263 Q22.4238,383.1373 21.9727,383.2427 Q21.5215,383.3482 21.0234,383.3482 Q19.2539,383.3482 18.3223,382.1822 Q17.3906,381.0162 17.3906,378.813 Q17.3906,376.6041 18.3223,375.438 Q19.2539,374.272 21.0234,374.272 Q21.5215,374.272 21.9785,374.3775 Q22.4355,374.483 22.834,374.6939 L22.834,376.6158 Q22.3887,376.2056 21.9697,376.0152 Q21.5508,375.8248 21.1055,375.8248 Q20.1563,375.8248 19.6729,376.5777 Q19.1895,377.3306 19.1895,378.813 Q19.1895,380.2896 19.6729,381.0425 Q20.1563,381.7955 21.1055,381.7955 Q21.5508,381.7955 21.9697,381.605 Q22.3887,381.4146 22.834,381.0045 Z " fill="#000000"/><text fill="#000000" font-family="sans-serif" font-size="12" lengthAdjust="spacing" textLength="221.168" x="34" y="383.2134">ManualThreadImageProcessingService</text><line style="stroke:#666666;stroke-width:0.5;" x1="8" x2="257.168" y1="393.6783" y2="393.6783"/><rect fill="none" height="6" style="stroke:#595959;stroke-width:1;" width="6" x="15" y="403.2447"/><text fill="#000000" font-family="sans-serif" font-size="12" lengthAdjust="spacing" textLength="96.0234" x="26" y="409.2798">numThreads: int</text><line style="stroke:#666666;stroke-width:0.5;" x1="8" x2="257.168" y1="415.8111" y2="415.8111"/><rect fill="#808080" height="6" style="stroke:#595959;stroke-width:1;" width="6" x="15" y="425.3775"/><text fill="#000000" font-family="sans-serif" font-size="12" lengthAdjust="spacing" textLength="224.5078" x="26" y="431.4127">buildHistogramParallel(img, w, h): int[]</text><rect fill="#808080" height="6" style="stroke:#595959;stroke-width:1;" width="6" x="15" y="439.5103"/><text fill="#000000" font-family="sans-serif" font-size="12" lengthAdjust="spacing" textLength="198.5039" x="26" y="445.5455">applyEqualizationParallel(...):  int[]</text></g><g id="elem_GMN8"><path d="M293.18,381.6783 L293.18,403.8783 L258.55,407.8783 L293.18,411.8783 L293.18,434.0767 A0,0 0 0 0 293.18,434.0767 L543.9788,434.0767 A0,0 0 0 0 543.9788,434.0767 L543.9788,391.6783 L533.9788,381.6783 L293.18,381.6783 A0,0 0 0 0 293.18,381.6783 " fill="#FAFAFA" style="stroke:#181818;stroke-width:0.5;"/><path d="M533.9788,381.6783 L533.9788,391.6783 L543.9788,391.6783 L533.9788,381.6783 " fill="#FAFAFA" style="stroke:#181818;stroke-width:0.5;"/><text fill="#000000" font-family="sans-serif" font-size="12" lengthAdjust="spacing" textLength="179.8477" x="299.18" y="398.2798">Creates fresh Thread[] per call.</text><text fill="#000000" font-family="sans-serif" font-size="12" lengthAdjust="spacing" textLength="221.9004" x="299.18" y="412.4127">Each thread writes to its own int[256].</text><text fill="#000000" font-family="sans-serif" font-size="12" lengthAdjust="spacing" textLength="229.7988" x="299.18" y="426.5455">Zero contention &#8212; no locks or atomics.</text></g><!--class ThreadPoolImageProcessingService--><g id="elem_ThreadPoolImageProcessingService"><rect codeLine="36" fill="#FAFAFA" height="88.3984" id="ThreadPoolImageProcessingService" rx="2.5" ry="2.5" style="stroke:#666666;stroke-width:0.5;" width="234.0586" x="578.55" y="363.6783"/><ellipse cx="592.55" cy="378.6783" fill="#C2C2C2" rx="10" ry="10" style="stroke:#181818;stroke-width:1;"/><path d="M594.384,382.9263 Q593.9738,383.1373 593.5227,383.2427 Q593.0715,383.3482 592.5734,383.3482 Q590.8039,383.3482 589.8723,382.1822 Q588.9406,381.0162 588.9406,378.813 Q588.9406,376.6041 589.8723,375.438 Q590.8039,374.272 592.5734,374.272 Q593.0715,374.272 593.5285,374.3775 Q593.9855,374.483 594.384,374.6939 L594.384,376.6158 Q593.9387,376.2056 593.5197,376.0152 Q593.1008,375.8248 592.6555,375.8248 Q591.7063,375.8248 591.2229,376.5777 Q590.7395,377.3306 590.7395,378.813 Q590.7395,380.2896 591.2229,381.0425 Q591.7063,381.7955 592.6555,381.7955 Q593.1008,381.7955 593.5197,381.605 Q593.9387,381.4146 594.384,381.0045 Z " fill="#000000"/><text fill="#000000" font-family="sans-serif" font-size="12" lengthAdjust="spacing" textLength="204.0586" x="605.55" y="383.2134">ThreadPoolImageProcessingService</text><line style="stroke:#666666;stroke-width:0.5;" x1="579.55" x2="811.6086" y1="393.6783" y2="393.6783"/><rect fill="none" height="6" style="stroke:#595959;stroke-width:1;" width="6" x="586.55" y="403.2447"/><text fill="#000000" font-family="sans-serif" font-size="12" lengthAdjust="spacing" textLength="72.2578" x="597.55" y="409.2798">poolSize: int</text><line style="stroke:#666666;stroke-width:0.5;" x1="579.55" x2="811.6086" y1="415.8111" y2="415.8111"/><rect fill="#808080" height="6" style="stroke:#595959;stroke-width:1;" width="6" x="586.55" y="425.3775"/><text fill="#000000" font-family="sans-serif" font-size="12" lengthAdjust="spacing" textLength="203.2676" x="597.55" y="431.4127">computeHistogramParallel(...): int[]</text><rect fill="#808080" height="6" style="stroke:#595959;stroke-width:1;" width="6" x="586.55" y="439.5103"/><text fill="#000000" font-family="sans-serif" font-size="12" lengthAdjust="spacing" textLength="194.707" x="597.55" y="445.5455">applyEqualizationParallel(...): int[]</text></g><g id="elem_GMN12"><path d="M847.28,374.6183 L847.28,403.8783 L812.87,407.8783 L847.28,411.8783 L847.28,441.1495 A0,0 0 0 0 847.28,441.1495 L1099.8894,441.1495 A0,0 0 0 0 1099.8894,441.1495 L1099.8894,384.6183 L1089.8894,374.6183 L847.28,374.6183 A0,0 0 0 0 847.28,374.6183 " fill="#FAFAFA" style="stroke:#181818;stroke-width:0.5;"/><path d="M1089.8894,374.6183 L1089.8894,384.6183 L1099.8894,384.6183 L1089.8894,374.6183 " fill="#FAFAFA" style="stroke:#181818;stroke-width:0.5;"/><text fill="#000000" font-family="sans-serif" font-size="12" lengthAdjust="spacing" textLength="231.6094" x="853.28" y="391.2198">Executors.newFixedThreadPool per call.</text><text fill="#000000" font-family="sans-serif" font-size="12" lengthAdjust="spacing" textLength="159.3574" x="853.28" y="405.3527">Callable&lt;int[]&gt; for stage 1.</text><text fill="#000000" font-family="sans-serif" font-size="12" lengthAdjust="spacing" textLength="125.1328" x="853.28" y="419.4855">Runnable for stage 3.</text><text fill="#000000" font-family="sans-serif" font-size="12" lengthAdjust="spacing" textLength="151.9512" x="853.28" y="433.6183">pool.shutdown() in finally.</text></g><!--class ForkJoinImageProcessingService--><g id="elem_ForkJoinImageProcessingService"><rect codeLine="48" fill="#FAFAFA" height="88.3984" id="ForkJoinImageProcessingService" rx="2.5" ry="2.5" style="stroke:#666666;stroke-width:0.5;" width="249.3262" x="1134.92" y="363.6783"/><ellipse cx="1163.8482" cy="378.6783" fill="#C2C2C2" rx="10" ry="10" style="stroke:#181818;stroke-width:1;"/><path d="M1165.6822,382.9263 Q1165.2721,383.1373 1164.8209,383.2427 Q1164.3697,383.3482 1163.8717,383.3482 Q1162.1021,383.3482 1161.1705,382.1822 Q1160.2388,381.0162 1160.2388,378.813 Q1160.2388,376.6041 1161.1705,375.438 Q1162.1021,374.272 1163.8717,374.272 Q1164.3697,374.272 1164.8267,374.3775 Q1165.2838,374.483 1165.6822,374.6939 L1165.6822,376.6158 Q1165.2369,376.2056 1164.8179,376.0152 Q1164.399,375.8248 1163.9537,375.8248 Q1163.0045,375.8248 1162.5211,376.5777 Q1162.0377,377.3306 1162.0377,378.813 Q1162.0377,380.2896 1162.5211,381.0425 Q1163.0045,381.7955 1163.9537,381.7955 Q1164.399,381.7955 1164.8179,381.605 Q1165.2369,381.4146 1165.6822,381.0045 Z " fill="#000000"/><text fill="#000000" font-family="sans-serif" font-size="12" lengthAdjust="spacing" textLength="186.1523" x="1180.1656" y="383.2134">ForkJoinImageProcessingService</text><line style="stroke:#666666;stroke-width:0.5;" x1="1135.92" x2="1383.2462" y1="393.6783" y2="393.6783"/><rect fill="none" height="6" style="stroke:#595959;stroke-width:1;" width="6" x="1142.92" y="403.2447"/><text fill="#000000" font-family="sans-serif" font-size="12" lengthAdjust="spacing" textLength="78.4863" x="1153.92" y="409.2798">threshold: int</text><line style="stroke:#666666;stroke-width:0.5;" x1="1135.92" x2="1383.2462" y1="415.8111" y2="415.8111"/><ellipse cx="1145.92" cy="428.3775" fill="#A6A6A6" rx="3" ry="3" style="stroke:#545454;stroke-width:1;"/><text fill="#000000" font-family="sans-serif" font-size="12" lengthAdjust="spacing" textLength="224.3262" x="1153.92" y="431.4127">HistogramTask (RecursiveTask&lt;int[]&gt;)</text><ellipse cx="1145.92" cy="442.5103" fill="#A6A6A6" rx="3" ry="3" style="stroke:#545454;stroke-width:1;"/><text fill="#000000" font-family="sans-serif" font-size="12" lengthAdjust="spacing" textLength="212.6133" x="1153.92" y="445.5455">EqualizationAction (RecursiveAction)</text></g><g id="elem_GMN16"><path d="M1418.89,374.6183 L1418.89,403.8783 L1384.51,407.8783 L1418.89,411.8783 L1418.89,441.1495 A0,0 0 0 0 1418.89,441.1495 L1702.2845,441.1495 A0,0 0 0 0 1702.2845,441.1495 L1702.2845,384.6183 L1692.2845,374.6183 L1418.89,374.6183 A0,0 0 0 0 1418.89,374.6183 " fill="#FAFAFA" style="stroke:#181818;stroke-width:0.5;"/><path d="M1692.2845,374.6183 L1692.2845,384.6183 L1702.2845,384.6183 L1692.2845,374.6183 " fill="#FAFAFA" style="stroke:#181818;stroke-width:0.5;"/><text fill="#000000" font-family="sans-serif" font-size="12" lengthAdjust="spacing" textLength="194.6074" x="1424.89" y="391.2198">Uses ForkJoinPool.commonPool().</text><text fill="#000000" font-family="sans-serif" font-size="12" lengthAdjust="spacing" textLength="180.8672" x="1424.89" y="405.3527">Recursive divide-and-conquer.</text><text fill="#000000" font-family="sans-serif" font-size="12" lengthAdjust="spacing" textLength="262.3945" x="1424.89" y="419.4855">Splits column range in half until &#8804; threshold.</text><text fill="#000000" font-family="sans-serif" font-size="12" lengthAdjust="spacing" textLength="183.7441" x="1424.89" y="433.6183">Work-stealing for load balance.</text></g><!--class CompletableFutureImageProcessingService--><g id="elem_CompletableFutureImageProcessingService"><rect codeLine="60" fill="#FAFAFA" height="88.3984" id="CompletableFutureImageProcessingService" rx="2.5" ry="2.5" style="stroke:#666666;stroke-width:0.5;" width="279.2227" x="1736.97" y="363.6783"/><ellipse cx="1750.97" cy="378.6783" fill="#C2C2C2" rx="10" ry="10" style="stroke:#181818;stroke-width:1;"/><path d="M1752.804,382.9263 Q1752.3938,383.1373 1751.9427,383.2427 Q1751.4915,383.3482 1750.9934,383.3482 Q1749.2239,383.3482 1748.2923,382.1822 Q1747.3606,381.0162 1747.3606,378.813 Q1747.3606,376.6041 1748.2923,375.438 Q1749.2239,374.272 1750.9934,374.272 Q1751.4915,374.272 1751.9485,374.3775 Q1752.4055,374.483 1752.804,374.6939 L1752.804,376.6158 Q1752.3587,376.2056 1751.9397,376.0152 Q1751.5208,375.8248 1751.0755,375.8248 Q1750.1263,375.8248 1749.6429,376.5777 Q1749.1595,377.3306 1749.1595,378.813 Q1749.1595,380.2896 1749.6429,381.0425 Q1750.1263,381.7955 1751.0755,381.7955 Q1751.5208,381.7955 1751.9397,381.605 Q1752.3587,381.4146 1752.804,381.0045 Z " fill="#000000"/><text fill="#000000" font-family="sans-serif" font-size="12" lengthAdjust="spacing" textLength="249.2227" x="1763.97" y="383.2134">CompletableFutureImageProcessingService</text><line style="stroke:#666666;stroke-width:0.5;" x1="1737.97" x2="2015.1927" y1="393.6783" y2="393.6783"/><rect fill="none" height="6" style="stroke:#595959;stroke-width:1;" width="6" x="1744.97" y="403.2447"/><text fill="#000000" font-family="sans-serif" font-size="12" lengthAdjust="spacing" textLength="78.9375" x="1755.97" y="409.2798">partitions: int</text><line style="stroke:#666666;stroke-width:0.5;" x1="1737.97" x2="2015.1927" y1="415.8111" y2="415.8111"/><rect fill="#808080" height="6" style="stroke:#595959;stroke-width:1;" width="6" x="1744.97" y="425.3775"/><text fill="#000000" font-family="sans-serif" font-size="12" lengthAdjust="spacing" textLength="195.6387" x="1755.97" y="431.4127">computeHistogramAsync(...): int[]</text><rect fill="#808080" height="6" style="stroke:#595959;stroke-width:1;" width="6" x="1744.97" y="439.5103"/><text fill="#000000" font-family="sans-serif" font-size="12" lengthAdjust="spacing" textLength="187.0781" x="1755.97" y="445.5455">applyEqualizationAsync(...): int[]</text></g><g id="elem_GMN20"><path d="M2051.61,381.6783 L2051.61,403.8783 L2016.49,407.8783 L2051.61,411.8783 L2051.61,434.0767 A0,0 0 0 0 2051.61,434.0767 L2293.567,434.0767 A0,0 0 0 0 2293.567,434.0767 L2293.567,391.6783 L2283.567,381.6783 L2051.61,381.6783 A0,0 0 0 0 2051.61,381.6783 " fill="#FAFAFA" style="stroke:#181818;stroke-width:0.5;"/><path d="M2283.567,381.6783 L2283.567,391.6783 L2293.567,391.6783 L2283.567,381.6783 " fill="#FAFAFA" style="stroke:#181818;stroke-width:0.5;"/><text fill="#000000" font-family="sans-serif" font-size="12" lengthAdjust="spacing" textLength="220.957" x="2057.61" y="398.2798">supplyAsync dispatches to fixed pool.</text><text fill="#000000" font-family="sans-serif" font-size="12" lengthAdjust="spacing" textLength="212.9414" x="2057.61" y="412.4127">allOf() + thenApply() merges results.</text><text fill="#000000" font-family="sans-serif" font-size="12" lengthAdjust="spacing" textLength="203.7246" x="2057.61" y="426.5455">Dedicated ExecutorService per call.</text></g><!--class ImageData--><g id="elem_ImageData"><rect codeLine="77" fill="#FAFAFA" height="102.5313" id="ImageData" rx="2.5" ry="2.5" style="stroke:#666666;stroke-width:0.5;" width="123.2969" x="1487.94" y="62.7483"/><ellipse cx="1515.9401" cy="77.7483" fill="#C2C2C2" rx="10" ry="10" style="stroke:#181818;stroke-width:1;"/><path d="M1517.7741,81.9963 Q1517.3639,82.2073 1516.9128,82.3127 Q1516.4616,82.4182 1515.9635,82.4182 Q1514.194,82.4182 1513.2624,81.2522 Q1512.3307,80.0862 1512.3307,77.883 Q1512.3307,75.6741 1513.2624,74.508 Q1514.194,73.342 1515.9635,73.342 Q1516.4616,73.342 1516.9186,73.4475 Q1517.3756,73.553 1517.7741,73.7639 L1517.7741,75.6858 Q1517.3288,75.2756 1516.9098,75.0852 Q1516.4909,74.8948 1516.0456,74.8948 Q1515.0963,74.8948 1514.6129,75.6477 Q1514.1296,76.4006 1514.1296,77.883 Q1514.1296,79.3596 1514.6129,80.1125 Q1515.0963,80.8655 1516.0456,80.8655 Q1516.4909,80.8655 1516.9098,80.675 Q1517.3288,80.4846 1517.7741,80.0745 Z " fill="#000000"/><text fill="#000000" font-family="sans-serif" font-size="12" lengthAdjust="spacing" textLength="62.1855" x="1532.0512" y="82.2834">ImageData</text><line style="stroke:#666666;stroke-width:0.5;" x1="1488.94" x2="1610.2369" y1="92.7483" y2="92.7483"/><rect fill="none" height="6" style="stroke:#595959;stroke-width:1;" width="6" x="1495.94" y="102.3147"/><text fill="#000000" font-family="sans-serif" font-size="12" lengthAdjust="spacing" textLength="65.4551" x="1506.94" y="108.3498">pixels: int[]</text><rect fill="none" height="6" style="stroke:#595959;stroke-width:1;" width="6" x="1495.94" y="116.4475"/><text fill="#000000" font-family="sans-serif" font-size="12" lengthAdjust="spacing" textLength="58.998" x="1506.94" y="122.4827">width:  int</text><rect fill="none" height="6" style="stroke:#595959;stroke-width:1;" width="6" x="1495.94" y="130.5803"/><text fill="#000000" font-family="sans-serif" font-size="12" lengthAdjust="spacing" textLength="60.0176" x="1506.94" y="136.6155">height: int</text><line style="stroke:#666666;stroke-width:0.5;" x1="1488.94" x2="1610.2369" y1="143.1467" y2="143.1467"/><ellipse cx="1498.94" cy="155.7131" fill="#A6A6A6" rx="3" ry="3" style="stroke:#545454;stroke-width:1;"/><text fill="#000000" font-family="sans-serif" font-size="12" lengthAdjust="spacing" textLength="98.2969" x="1506.94" y="158.7483">getPixel(x, y): int</text></g><g id="elem_GMN29"><path d="M1425.01,247.4183 L1425.01,299.8167 A0,0 0 0 0 1425.01,299.8167 L1674.1506,299.8167 A0,0 0 0 0 1674.1506,299.8167 L1674.1506,257.4183 L1664.1506,247.4183 L1553.58,247.4183 L1549.58,165.7483 L1545.58,247.4183 L1425.01,247.4183 A0,0 0 0 0 1425.01,247.4183 " fill="#FAFAFA" style="stroke:#181818;stroke-width:0.5;"/><path d="M1664.1506,247.4183 L1664.1506,257.4183 L1674.1506,257.4183 L1664.1506,247.4183 " fill="#FAFAFA" style="stroke:#181818;stroke-width:0.5;"/><text fill="#000000" font-family="sans-serif" font-size="12" lengthAdjust="spacing" textLength="209.5605" x="1431.01" y="264.0198">Column-major: pixels[x*height + y]</text><text fill="#000000" font-family="sans-serif" font-size="12" lengthAdjust="spacing" textLength="197.1152" x="1431.01" y="278.1527">4 bytes per pixel (packed RGB int)</text><text fill="#000000" font-family="sans-serif" font-size="12" lengthAdjust="spacing" textLength="228.1406" x="1431.01" y="292.2855">vs ~32 bytes for separate R,G,B objects</text></g><!--class HistogramUtils--><g id="elem_HistogramUtils"><rect codeLine="89" fill="#FAFAFA" height="139.0625" id="HistogramUtils" rx="2.5" ry="2.5" style="stroke:#666666;stroke-width:0.5;" width="292.1816" x="1646.49" y="44.4883"/><ellipse cx="1745.4089" cy="63.6211" fill="#C2C2C2" rx="10" ry="10" style="stroke:#181818;stroke-width:1;"/><path d="M1747.2429,67.8691 Q1746.8328,68.0801 1746.3816,68.1855 Q1745.9304,68.291 1745.4324,68.291 Q1743.6629,68.291 1742.7312,67.125 Q1741.7996,65.959 1741.7996,63.7559 Q1741.7996,61.5469 1742.7312,60.3809 Q1743.6629,59.2148 1745.4324,59.2148 Q1745.9304,59.2148 1746.3875,59.3203 Q1746.8445,59.4258 1747.2429,59.6367 L1747.2429,61.5586 Q1746.7976,61.1484 1746.3787,60.958 Q1745.9597,60.7676 1745.5144,60.7676 Q1744.5652,60.7676 1744.0818,61.5205 Q1743.5984,62.2734 1743.5984,63.7559 Q1743.5984,65.2324 1744.0818,65.9854 Q1744.5652,66.7383 1745.5144,66.7383 Q1745.9597,66.7383 1746.3787,66.5479 Q1746.7976,66.3574 1747.2429,65.9473 Z " fill="#000000"/><text fill="#000000" font-family="sans-serif" font-size="12" font-style="italic" lengthAdjust="spacing" textLength="45.6738" x="1784.7439" y="61.0898">&#171;utility&#187;</text><text fill="#000000" font-family="sans-serif" font-size="12" lengthAdjust="spacing" textLength="86.3438" x="1764.4089" y="75.2227">HistogramUtils</text><line style="stroke:#666666;stroke-width:0.5;" x1="1647.49" x2="1937.6716" y1="82.7539" y2="82.7539"/><line style="stroke:#666666;stroke-width:0.5;" x1="1647.49" x2="1937.6716" y1="90.7539" y2="90.7539"/><ellipse cx="1657.49" cy="103.3203" fill="#A6A6A6" rx="3" ry="3" style="stroke:#545454;stroke-width:1;"/><text fill="#000000" font-family="sans-serif" font-size="12" lengthAdjust="spacing" textLength="155.7539" x="1665.49" y="106.3555">luminosity(packedRgb): int</text><ellipse cx="1657.49" cy="117.4531" fill="#A6A6A6" rx="3" ry="3" style="stroke:#545454;stroke-width:1;"/><text fill="#000000" font-family="sans-serif" font-size="12" lengthAdjust="spacing" textLength="131.7656" x="1665.49" y="120.4883">equalize(cdf, total): int</text><ellipse cx="1657.49" cy="131.5859" fill="#A6A6A6" rx="3" ry="3" style="stroke:#545454;stroke-width:1;"/><text fill="#000000" font-family="sans-serif" font-size="12" lengthAdjust="spacing" textLength="215.4551" x="1665.49" y="134.6211">buildCumulativeHistogram(hist): int[]</text><ellipse cx="1657.49" cy="145.7188" fill="#A6A6A6" rx="3" ry="3" style="stroke:#545454;stroke-width:1;"/><text fill="#000000" font-family="sans-serif" font-size="12" lengthAdjust="spacing" textLength="163.9512" x="1665.49" y="148.7539">mergeHistograms(a, b): int[]</text><ellipse cx="1657.49" cy="159.8516" fill="#A6A6A6" rx="3" ry="3" style="stroke:#545454;stroke-width:1;"/><text fill="#000000" font-family="sans-serif" font-size="12" lengthAdjust="spacing" textLength="105.8262" x="1665.49" y="162.8867">grayPixel(lum): int</text><ellipse cx="1657.49" cy="173.9844" fill="#A6A6A6" rx="3" ry="3" style="stroke:#545454;stroke-width:1;"/><text fill="#000000" font-family="sans-serif" font-size="12" lengthAdjust="spacing" textLength="267.1816" x="1665.49" y="177.0195">equalizer(cumulative, total): IntUnaryOperator</text></g><!--reverse link ImageProcessingService to SequentialImageProcessingService--><g id="link_ImageProcessingService_SequentialImageProcessingService"><path codeLine="71" d="M977.58,166.4383 C977.58,194.5383 977.58,216.3183 977.58,243.2183 " fill="none" id="ImageProcessingService-backto-SequentialImageProcessingService" style="stroke:#333333;stroke-width:1;"/><polygon fill="none" points="977.58,148.4383,971.58,166.4383,983.58,166.4383,977.58,148.4383" style="stroke:#333333;stroke-width:1;"/></g><!--reverse link SequentialImageProcessingService to ManualThreadImageProcessingService--><g id="link_SequentialImageProcessingService_ManualThreadImageProcessingService"><path codeLine="72" d="M844.9845,284.761 C705.1745,296.631 480.15,320.1183 275.58,363.6783 C270,364.8683 264.33,366.1683 258.61,367.5583 " fill="none" id="SequentialImageProcessingService-backto-ManualThreadImageProcessingService" style="stroke:#333333;stroke-width:1;"/><polygon fill="none" points="862.92,283.2383,844.4769,278.7825,845.4921,290.7395,862.92,283.2383" style="stroke:#333333;stroke-width:1;"/></g><!--reverse link SequentialImageProcessingService to ThreadPoolImageProcessingService--><g id="link_SequentialImageProcessingService_ThreadPoolImageProcessingService"><path codeLine="73" d="M898.3541,311.7732 C861.2641,329.1732 829.94,343.8583 788.58,363.2583 " fill="none" id="SequentialImageProcessingService-backto-ThreadPoolImageProcessingService" style="stroke:#333333;stroke-width:1;"/><polygon fill="none" points="914.65,304.1283,895.8058,306.3412,900.9024,317.2051,914.65,304.1283" style="stroke:#333333;stroke-width:1;"/></g><!--reverse link SequentialImageProcessingService to ForkJoinImageProcessingService--><g id="link_SequentialImageProcessingService_ForkJoinImageProcessingService"><path codeLine="74" d="M1056.8159,311.7732 C1093.9059,329.1732 1125.23,343.8583 1166.59,363.2583 " fill="none" id="SequentialImageProcessingService-backto-ForkJoinImageProcessingService" style="stroke:#333333;stroke-width:1;"/><polygon fill="none" points="1040.52,304.1283,1054.2676,317.2051,1059.3642,306.3412,1040.52,304.1283" style="stroke:#333333;stroke-width:1;"/></g><!--reverse link SequentialImageProcessingService to CompletableFutureImageProcessingService--><g id="link_SequentialImageProcessingService_CompletableFutureImageProcessingService"><path codeLine="75" d="M1109.9663,303.9569 C1379.0263,346.6569 1451.73,314.0283 1719.58,363.6783 C1725.14,364.7083 1730.79,365.8483 1736.48,367.0583 " fill="none" id="SequentialImageProcessingService-backto-CompletableFutureImageProcessingService" style="stroke:#333333;stroke-width:1;"/><polygon fill="none" points="1092.26,300.7183,1108.8867,309.8589,1111.0458,298.0548,1092.26,300.7183" style="stroke:#333333;stroke-width:1;"/></g><!--SRC=[ZLRTRjis5BxNKnnWD_9Y6sko5KCH173Skks0hO7TOC22ND3KaSMQ8bMIigDk7NhR-pt2dgnFiaFAbfJPiIrVo28_df-FtpcaNGfLCCDooBNIF3CwHt2cnCWsCmcch9HkefNxZT7qZ2axGoFI_PYP-8JmxBmpEJ96hyTQQWFVNOIdCpcMpDfhnfSBeqkLR62JaV_jmBH9q6mWpyFJWRnL3atAEEvQ-y7_zaAx5dyEJnGvuIJ2sxoGcADop0cju8r0mmpFgYWIszM4OGkyCPgZjK8jY9MLeE7BomPoTGL_HW1dKDIeE2nvoHm32gPqlHVGZ4IVeuZxF6667qloB9XymeEtEO1vAMJoHbYd5vHLBF957zPzoCWe1N1tJmQLTWX6B387EZrgbwnUCujIA0JnAFyXJSq8A77WCeCimQGFNCioLuESVI3w16NSG4TIWdOP6WjwXSQ81C4wSWdFWAa4BeOHqij7jytvLwPA9jy7umUpLcLUesn8SmyJDxJ9KgBSmuW7iwAGrQkFv4ry2X4t-E5mICWdo3iU85aVqwn32wb1cq4Dlhk70Wrmyk6vUSLu1ZM9i3R2evqc-eYgjGg-ptzwVk-HVw3HH39fIGKDVllo3r46KlCbWGqmftF1xIwNjTyRhG_hfo20BzUMHwvp4YNkCbapSpg7-oay5fTdvm5vwRInGuNhYNZ0f5tqYCOnlTbSucLmTGKf4RAHc9-UbahvwSxuXH_tEGzjLhg4s8vx52YaGf6jQfV6YJRBNxHG1qdqEsapBPCjYsVGqFUUsIN4Kyh8MB52_xa9jnU0NG97FEnnYwu7UZia7ewAxDvQR6Ftl0rfMwc_-xznBv2pzG69M55j3gWc1oGqwWucL7eXlHxh-WR35B57H6LCfb2I5YLy-_flcxbVyZlv6rY7b8zQ1DAb9e7FcMIAuowtO-txY_DRD2bTQV2mKfcXhanqsAUrEhALuiU5kWlxFy4dXaRcRUcj1ul4f2sOurbTpgbNRYqsmf6ytgKajZFY3DN8BwAl7Cs2q4GY7PtMurvY8ZZrZwGfWoqDhV9R8fywVVuQ38vt-gD7J31pGiyxpT3HoZ_Dp17jdsRarFtTABKziJTQfAsLjgknjKXSLfyRuJj3BwMs7opGtVX5yKCVgbfsMz7DjQCcxbNNNWEejtKErXSRXtSFtzTsoM3b_Vu8yyeV7buQ0G9nGJSV4i_qzRNtuNlCoiBV5-SRP6Y5wAz0v7dQVzs_1Zt_WDpPdV9igkgMgjtIZQQajt1LSv-X08NIbeOsNgUBUQzD6UkAmvWdQPyAmZ7PcGt7zRZCIqabkMfBECxeNwTyp-eQQUPjpFemVmIWuQecboBQ4u29UUEd3OGkWBUAcUfTuIyjsaIV_mC0]--></g></svg>